<svg width="47" height="46" viewBox="0 0 47 46" fill="none" xmlns="http://www.w3.org/2000/svg">
<path d="M11.5833 41.6667H19.9167C19.9167 43.9583 18.0417 45.8333 15.75 45.8333C13.4583 45.8333 11.5833 43.9583 11.5833 41.6667ZM7.41667 39.5833H24.0833V35.4167H7.41667V39.5833ZM31.375 19.7917C31.375 27.75 25.8333 32 23.5208 33.3333H7.97917C5.66667 32 0.125 27.75 0.125 19.7917C0.125 11.1667 7.125 4.16667 15.75 4.16667C24.375 4.16667 31.375 11.1667 31.375 19.7917ZM41.5208 15.3542L38.6667 16.6667L41.5208 17.9792L42.8333 20.8333L44.1458 17.9792L47 16.6667L44.1458 15.3542L42.8333 12.5L41.5208 15.3542ZM36.5833 12.5L38.5417 8.20833L42.8333 6.25L38.5417 4.29167L36.5833 0L34.625 4.29167L30.3333 6.25L34.625 8.20833L36.5833 12.5Z" fill="black"/>
</svg>
