<svg width="50" height="50" viewBox="0 0 50 50" fill="none" xmlns="http://www.w3.org/2000/svg">
<path d="M31.8953 18.1041C37.7299 23.9449 37.6499 33.309 31.9304 39.0602C31.9197 39.0719 31.907 39.0846 31.8953 39.0963L25.3328 45.6588C19.5447 51.4469 10.1278 51.4461 4.34058 45.6588C-1.44751 39.8717 -1.44751 30.4537 4.34058 24.6666L7.96421 21.043C8.92515 20.0821 10.58 20.7207 10.6296 22.0787C10.6929 23.8094 11.0033 25.5482 11.5759 27.2273C11.7699 27.7958 11.6313 28.4247 11.2065 28.8495L9.92847 30.1276C7.19155 32.8645 7.10571 37.3209 9.81567 40.0846C12.5524 42.8755 17.0506 42.8921 19.8083 40.1344L26.3708 33.5729C29.1239 30.8199 29.1124 26.3701 26.3708 23.6285C26.0094 23.2678 25.6454 22.9875 25.361 22.7917C25.1598 22.6536 24.9937 22.4703 24.8759 22.2566C24.7581 22.0429 24.6919 21.8045 24.6826 21.5607C24.6439 20.5287 25.0095 19.4654 25.8249 18.6499L27.881 16.5938C28.4202 16.0546 29.266 15.9884 29.8912 16.4247C30.6071 16.9247 31.2778 17.4867 31.8953 18.1041ZM45.6584 4.34027C39.8712 -1.44704 30.4543 -1.44782 24.6663 4.34027L18.1038 10.9028C18.092 10.9145 18.0793 10.9272 18.0686 10.9389C12.3493 16.6901 12.2691 26.0542 18.1038 31.895C18.7212 32.5124 19.3918 33.0743 20.1078 33.5742C20.733 34.0106 21.5789 33.9443 22.1179 33.4052L24.174 31.3491C24.9894 30.5336 25.355 29.4702 25.3164 28.4383C25.307 28.1944 25.2408 27.9561 25.123 27.7424C25.0052 27.5287 24.8391 27.3454 24.6379 27.2073C24.3536 27.0115 23.9895 26.7312 23.6281 26.3704C20.8866 23.6289 20.875 19.1791 23.6281 16.4261L30.1906 9.86458C32.9483 7.10687 37.4464 7.12347 40.1833 9.91439C42.8932 12.6781 42.8075 17.1345 40.0705 19.8714L38.7924 21.1494C38.3676 21.5743 38.2291 22.2032 38.423 22.7717C38.9957 24.4508 39.306 26.1896 39.3693 27.9202C39.419 29.2783 41.0738 29.9169 42.0347 28.956L45.6583 25.3324C51.4465 19.5453 51.4465 10.1274 45.6584 4.34027Z" fill="black"/>
</svg>
